<svg xmlns="http://www.w3.org/2000/svg" width="1280" height="720" viewBox="0 0 1280 720" role="img" aria-labelledby="title desc">
  <title id="title">Stock Research Command Center dashboard preview</title>
  <desc id="desc">A stylized preview of the readiness-first stock research dashboard with readiness cards, At A Glance single-stock status, Best Review Path, project DCF method notes, copy-only unlock commands, and plain-language stock analysis modes.</desc>
  <defs>
    <linearGradient id="bg" x1="0" y1="0" x2="1" y2="1">
      <stop offset="0" stop-color="#f7efe1"/>
      <stop offset="0.52" stop-color="#dcebd8"/>
      <stop offset="1" stop-color="#d3e3ee"/>
    </linearGradient>
    <linearGradient id="panel" x1="0" y1="0" x2="1" y2="1">
      <stop offset="0" stop-color="#fffdf8"/>
      <stop offset="1" stop-color="#f1f5ee"/>
    </linearGradient>
    <filter id="shadow" x="-20%" y="-20%" width="140%" height="140%">
      <feDropShadow dx="0" dy="18" stdDeviation="18" flood-color="#173024" flood-opacity="0.18"/>
    </filter>
  </defs>
  <rect width="1280" height="720" fill="url(#bg)"/>
  <circle cx="1090" cy="90" r="190" fill="#e6a84f" opacity="0.22"/>
  <circle cx="170" cy="640" r="260" fill="#2f6f5e" opacity="0.16"/>
  <rect x="70" y="54" width="1140" height="612" rx="34" fill="url(#panel)" filter="url(#shadow)"/>
  <rect x="70" y="54" width="1140" height="78" rx="34" fill="#172820"/>
  <text x="112" y="103" fill="#f8f1df" font-family="Georgia, 'Times New Roman', serif" font-size="30" font-weight="700">Stock Research Command Center</text>
  <text x="850" y="98" fill="#bbd4c7" font-family="Verdana, sans-serif" font-size="15">CSV-first • readiness-first • research-only</text>

  <g font-family="Verdana, sans-serif">
    <rect x="112" y="164" width="214" height="124" rx="18" fill="#ffffff" stroke="#d8dfd2"/>
    <text x="132" y="198" fill="#597164" font-size="13" font-weight="700">PRICE READY</text>
    <text x="132" y="244" fill="#172820" font-size="42" font-weight="700">265</text>
    <text x="226" y="244" fill="#768276" font-size="20">/ 3538</text>
    <rect x="132" y="260" width="138" height="8" rx="4" fill="#dce8d3"/>
    <rect x="132" y="260" width="46" height="8" rx="4" fill="#2f6f5e"/>

    <rect x="348" y="164" width="214" height="124" rx="18" fill="#ffffff" stroke="#d8dfd2"/>
    <text x="368" y="198" fill="#597164" font-size="13" font-weight="700">DCF READY</text>
    <text x="368" y="244" fill="#172820" font-size="42" font-weight="700">23</text>
    <text x="430" y="244" fill="#768276" font-size="20">/ 3538</text>
    <rect x="368" y="260" width="138" height="8" rx="4" fill="#eadfc9"/>
    <rect x="368" y="260" width="12" height="8" rx="4" fill="#c27b37"/>

    <rect x="584" y="164" width="214" height="124" rx="18" fill="#ffffff" stroke="#d8dfd2"/>
    <text x="604" y="198" fill="#597164" font-size="13" font-weight="700">PEER READY</text>
    <text x="604" y="244" fill="#172820" font-size="42" font-weight="700">9</text>
    <text x="650" y="244" fill="#768276" font-size="20">/ 3538</text>
    <rect x="604" y="260" width="138" height="8" rx="4" fill="#eadfc9"/>
    <rect x="604" y="260" width="10" height="8" rx="4" fill="#c27b37"/>

    <rect x="820" y="164" width="336" height="124" rx="18" fill="#fff8ec" stroke="#e3c78e"/>
    <text x="842" y="198" fill="#9a6429" font-size="13" font-weight="700">RESEARCH GUARDRAIL</text>
    <text x="842" y="231" fill="#172820" font-size="24" font-weight="700">No data, no conclusion</text>
    <text x="842" y="260" fill="#6f766f" font-size="15">Blocked rows become unlock checklists.</text>
  </g>

  <g font-family="Verdana, sans-serif">
    <rect x="112" y="326" width="506" height="264" rx="22" fill="#ffffff" stroke="#d8dfd2"/>
    <text x="136" y="363" fill="#172820" font-size="21" font-weight="700">Trusted Data Pilot</text>
    <text x="136" y="390" fill="#68796f" font-size="14">Copy-only proof paths, capped and targeted.</text>

    <rect x="136" y="421" width="454" height="44" rx="12" fill="#f5f1e8"/>
    <text x="156" y="449" fill="#172820" font-size="13">make trusted-data-pilot-candidates TOP_N=10</text>
    <rect x="495" y="433" width="67" height="20" rx="10" fill="#e4ad5b"/>
    <text x="507" y="448" fill="#172820" font-size="11" font-weight="700">rank</text>

    <rect x="136" y="479" width="454" height="44" rx="12" fill="#f5f1e8"/>
    <text x="156" y="507" fill="#172820" font-size="13">make trusted-data-pilot-packet TICKER=CRDO</text>
    <rect x="495" y="491" width="67" height="20" rx="10" fill="#cfdcae"/>
    <text x="506" y="506" fill="#172820" font-size="11" font-weight="700">packet</text>

    <rect x="136" y="537" width="454" height="44" rx="12" fill="#f5f1e8"/>
    <text x="156" y="565" fill="#172820" font-size="13">make stock-report-md TICKER=NVDA</text>
    <rect x="495" y="549" width="67" height="20" rx="10" fill="#bad4df"/>
    <text x="506" y="564" fill="#172820" font-size="11" font-weight="700">report</text>

    <rect x="648" y="326" width="508" height="264" rx="22" fill="#ffffff" stroke="#d8dfd2"/>
    <text x="672" y="363" fill="#172820" font-size="21" font-weight="700">Single-Stock Report</text>
    <text x="672" y="390" fill="#68796f" font-size="14">At A Glance + Best Review Path before tables.</text>
    <rect x="672" y="423" width="216" height="50" rx="16" fill="#f2f7f1"/>
    <text x="694" y="445" fill="#172820" font-size="15" font-weight="700">Mode + decision</text>
    <text x="694" y="462" fill="#68796f" font-size="12">DCF-ready review</text>
    <rect x="910" y="423" width="216" height="50" rx="16" fill="#f5f1e8"/>
    <text x="932" y="445" fill="#172820" font-size="15" font-weight="700">DCF + peers</text>
    <text x="932" y="462" fill="#68796f" font-size="12">Standalone DCF review</text>
    <rect x="672" y="487" width="216" height="50" rx="16" fill="#fff2dd"/>
    <text x="694" y="509" fill="#172820" font-size="15" font-weight="700">What not to infer</text>
    <text x="694" y="526" fill="#68796f" font-size="12">Price/setup review</text>
    <rect x="910" y="487" width="216" height="50" rx="16" fill="#eef6fa"/>
    <text x="932" y="509" fill="#172820" font-size="15" font-weight="700">Next local step</text>
    <text x="932" y="526" fill="#68796f" font-size="12">Monitor-only context</text>
    <rect x="672" y="548" width="216" height="26" rx="13" fill="#e9ece2"/>
    <text x="694" y="566" fill="#172820" font-size="13" font-weight="700">Data-unlock only</text>
    <rect x="910" y="548" width="216" height="26" rx="13" fill="#172820"/>
    <text x="932" y="566" fill="#f8f1df" font-size="13">Method: project DCF</text>
  </g>
  <text x="672" y="606" fill="#68796f" font-family="Verdana, sans-serif" font-size="13">DCF path: cash flows, terminal value, cash/debt, fair value/share</text>
  <text x="672" y="628" fill="#68796f" font-family="Verdana, sans-serif" font-size="13">Research-only: no broker, no order routing, no direct buy/sell instructions</text>
</svg>
